<?xml version="1.0" encoding="utf-8"?>
<!-- Generator: Adobe Illustrator 15.1.0, SVG Export Plug-In . SVG Version: 6.00 Build 0)  -->
<!DOCTYPE svg PUBLIC "-//W3C//DTD SVG 1.1//EN" "http://www.w3.org/Graphics/SVG/1.1/DTD/svg11.dtd">
<svg version="1.1" id="Layer_1" xmlns="http://www.w3.org/2000/svg" xmlns:xlink="http://www.w3.org/1999/xlink" x="0px" y="0px"
	 width="360px" height="360px" viewBox="0 0 360 360" enable-background="new 0 0 360 360" xml:space="preserve">
<path fill-rule="evenodd" clip-rule="evenodd" d="M31.011,168.053c0.825-0.797,0.25,3.362,0.419,4.61
	C30.605,173.46,31.181,169.301,31.011,168.053z"/>
<path fill-rule="evenodd" clip-rule="evenodd" d="M185.688,108.125c2.3-0.917,4.954-4.653,9.188-5.031
	c7.703-8.921,13.817-19.431,21.374-28.499c0.224-1.621-0.748-2.046-0.419-3.771c1.569-0.945,3.789-1.24,5.028-2.515
	c-1.239-0.995-3.416-1.054-3.353-3.353c1.566-2.331-1.674-6.781-3.757-9.165c2.239-2.371,5.605-4.201,8.792-5.625
	c0.062-3.274-1.034-4.438-1.264-7.422c1.458,0.777,0.556,3.915,2.515,4.191c0.116-0.735-1.18-2.091,0-2.515
	c0.255,1.026,1.04,3.678,2.096,2.515c-0.712-1.317,0.819,1.087,1.258,0c0.873-1.452-2.043-4.922-0.839-6.706
	c0.267,1.41,0.298,3.055,1.258,3.771c-0.089-0.922-1.023-3.123-0.419-3.353c0.709,1.665,0.932,3.818,2.095,5.029
	c-0.223-1.174-0.615-2.179-0.838-3.353c0.967-0.128,0.466,1.211,1.257,1.257c0.313-1.593-1.715-3.002-0.419-4.191
	c2.235,0.279,1.401,3.628,2.096,5.448c1.865-0.251-1.374-4.339,0-5.448c0.858,1.516,0.377,4.373,2.096,5.029
	c-0.368-2.956-0.267-2.537,0.419-4.191c0.91,0.062,1.186,4.3,1.677,2.095c-0.488-0.07-0.455-0.663-0.42-1.257
	c1.36,0.037,0.295,2.499,2.096,2.096c0.6-3.123-2.087-5.166-0.838-7.544c-0.018,2.811,1.746,3.842,2.934,5.448
	c-0.715-4.873-2.619-8.556-3.353-13.411c0.563,0.084,0.78,1.74,0.838,0c-2.373-9.529-3.622-15.38-7.125-27.66c0.141,0,0.28,0,0.42,0
	c3.195,9.075,6.016,15.929,7.543,23.469c0.94,0.178,1.336,0.899,2.096,1.257c0.509,3.896,1.637,8.013,3.353,14.249
	c1.657-0.298,0.277-3.635,2.515-3.353c1.689-0.152,0.649,2.424,2.515,2.096c-0.186-3.305,1.858-0.494,3.353-1.676
	c0.586-1.205-1.142-2.129,0-2.515c1.275,0.122,0.578,2.216,1.677,2.515c1.02-1.455,0.131-2.326,1.257-3.353
	c0.871,0.108,0.641,0.768,1.364,1.022c1.957-0.417,2.559-0.941,4.291-1.583c5.256,5.642,12.295,10.271,16.557,16.906
	c0.616,1.594-1.873,0.083-1.257,1.676c2.092,9.19,6.953,12.208,12.572,18.859c0.434-11.301,2.108-21.361,2.515-32.689
	c3.057-2.531,6.728-4.448,10.478-6.286c3.802,2.764,8.859,4.272,12.572,7.125c0.447-0.95,1.271-1.523,2.515-1.676
	c1.502,1.152,2.89,2.419,5.029,2.934c1.658-0.437,2.115-2.076,4.191-2.096c8.535,5.574,17.47,10.749,25.983,16.345
	c-0.802,8.977-1.619,17.939-2.096,27.241c0.591,0.946,2.729,0.344,2.515,2.096c-2.082,26.7-3.658,60.347-5.448,86.752
	c-0.432,6.361,1.03,10.548,3.353,15.506c1.128-8.232,4.142-14.578,5.867-22.212c0.257-1.56-0.792-4.424,1.258-4.191
	c1.155,2.197,0.439,6.266,1.257,8.801c-6.373,14.163-8.41,32.661-12.572,49.034c-0.161,1.418,1.854,0.659,1.257,2.515
	c-1.067,5.97-3.985,8.952-6.286,13.83c-1.63,3.455-2.964,7.057-4.61,10.478c-8.504,17.674-18.421,32.641-29.755,46.519
	c-2.45,3-4.413,6.188-6.706,8.802c-1.808,2.061-4.479,3.414-6.286,5.447c-2.858,3.216-4.534,6.629-7.963,9.221
	c-2.605,1.97-5.584,2.858-7.963,5.448c-0.406-0.711-1.158-1.077-2.514-0.839c-15.619,10.433-33.194,18.855-54.063,25.146
	c-23.3,7.024-61.298,7.432-85.495,0c-26.792-8.229-51.333-20.479-69.569-37.718c-10.129-9.576-19.692-19.327-28.499-31.432
	c-16.83-23.136-30.672-53.678-32.689-87.171c-1.191-19.776-0.256-41.124,5.448-56.578c0.819,2.612,0.811-0.497,1.676-1.257
	c0.61,5.118,0.001,11.454,0.838,16.345c6.673-39.985,24.873-68.445,47.357-92.62c-3.105,5.138-8.789,9.929-10.477,15.087
	c6.103-1.939,9.822-8.547,15.506-12.154c0.455,1.074-1.273,1.998,0,2.515c2.261-2.349,4.966-4.253,7.543-6.286
	c-3.443,5.079-10.234,9.043-12.573,13.83c0.101-0.456,0.69-1.006,0.838-0.419c-3.333,2.77-6.876,8.999-8.801,10.478
	c-8.878,13.875-18.975,30.293-22.212,48.195c1.441-4.287,3.683-7.772,5.867-11.315c0.167,1.585-1.403,3.598-0.419,4.61
	c1.41-5.482,5.195-8.68,7.543-12.153c-3.601,8.596-6.397,23.885-10.058,30.174c0.351-2.096,0.868-4.063,1.676-4.61
	c0.272-1.544,1.207-7.993,0-5.867c-1.618-0.314-0.878,1.996-1.257,3.353c-3.911,14.005-6.803,33.487-4.191,50.291
	c0.274-2.52-0.552-6.14,0.419-7.963c1.996,1.362-0.09,9.023,1.257,9.639c0.267-1.548-0.543-4.175,0.419-5.029
	c1.272,0.558,0.367,5.481,1.257,5.029c0.172-3.18,0.184-6.521,0.838-9.22c0.375,2,0.123,4.627,0.838,6.286
	c0.98-1.395-0.22-4.97,0.838-6.286c0.325,0.932,0.242,2.272,1.257,2.515c2.064-2.267,1.031-7.63,2.934-10.059
	c-0.534,8.871-0.023,16.049,1.676,23.889c0.125-3.089-0.085-6.512,1.257-8.382c0.169,1.249-0.406,5.408,0.419,4.61
	c0.276-3.216-0.554-7.539,0.419-10.058c0.943,0.174-0.063,2.298,1.257,2.095c0.437-2.637-0.019-6.166,1.257-7.963
	c3.8,59.763,30.917,98.442,70.827,120.699c-0.63-0.628-1.765-0.75-2.096-1.677c1.015,0.522,2.036,1.038,3.353,1.258
	c-0.748-2.466-3.356-3.07-5.029-4.61c0.978-0.626,1.806,0.142,2.095-0.419c-1.26-1.819-4.855-3.519-5.029-5.029
	c4.178-0.303,7.584,3.343,11.734,5.448c7.228,3.666,15.928,6.613,23.05,8.801c-2.045-1.168-4.476-1.95-6.287-3.353
	c1.401-0.3,2.625-0.479,2.515-1.258c12.921,2.466,24.712,4.229,38.556,3.354c29.979-1.896,51.871-17,63.283-39.395
	c3.897-7.648,8.352-17.785,8.382-25.984c0.007-1.792-1.179-4.014-1.677-6.286c-3.428-15.636-7.684-40.218-12.572-52.806
	c0.667,0.544,1.687,0.553,0.838-0.419c-2.012-10.701-4.959-20.465-6.705-31.432c-3.842-3.702-9.059-6.029-12.573-10.058
	c1.648,1.314,4.208,2.689,6.286,4.191c1.925,1.391,3.918,4.209,5.448,3.353c-1.7-5.564-1.599-12.93-5.448-16.345
	c0.743-0.095,2.1,0.422,1.677-0.838c-3.108-11.141-4.604-23.894-8.382-34.366c-3.409,6.649-5.179,14.938-11.315,18.859
	c-3.485,7.271-11.319,10.194-12.573,19.697c3.248,5.363-0.023,9.241-1.257,12.153c-1.086,2.564-0.961,5.744-2.096,8.382
	c-2.201,5.117-6.419,9.63-6.286,15.506c-2.041,2.006-2.138,4.343-3.353,7.125c-1.371,3.14-2.747,4.461-4.191,6.705
	c-0.767,1.191-0.985,2.542-1.677,3.772c-0.969,1.726-2.707,3.234-3.353,4.191c-0.482,0.715-0.066,2.023-0.419,2.515
	c-0.695,0.968-2.183,1.089-2.934,2.096c-0.339,0.454,0.314,1.619,0,2.095c-0.694,1.051-2.271,2.231-3.353,3.772
	c-3.9,5.556-11.771,15.221-17.183,17.602c-8.099,3.563-14.212-8.812-19.697-12.992c-1.61-1.227-3.234-1.155-4.61-2.934
	c-0.21-1.747,1.225-1.849,0.838-3.771c-2.132-2.338-5.264-3.677-7.962-5.448c-1.692,2.064-2.667,0.414-5.029,0
	c-3.675,1.128-10.63,4.064-14.249,1.257c1.44-1.465,3.694-5.932,7.543-7.543c1.585-0.664,4.238-0.195,6.287-1.257
	c2.522-1.309,2.839-3.427,5.029-3.353c3.577,0.122,3.969,4.365,7.125,4.61c-0.283,1.183-2.802-1.032-2.934,0
	c5.614,4.724,11.947,8.729,19.278,11.734c1.042,0.495,0.42,2.652,1.676,2.934c0.047-1.07,0.769-1.467,1.257-2.096
	c0.898,1.198,1.276,2.915,2.934,3.353c3.785-7.391,8.091-14.26,12.154-21.373c-9.148-3.006-24.62,0.312-33.108-3.353
	c-1.634,0.461-3.903,0.288-5.448,0.838c-0.916,1.04-1.289,2.623-2.934,2.934c-4.411-3.627-14.275,4.276-17.602-2.096
	c3.837-12.526,17.311-4.504,26.822-8.382c1.604-3.342,4.619-2.303,7.963-2.514c3.114-0.197,6.955-2.076,10.477-2.515
	c8.138-1.014,11.917-5.466,18.021-7.125c6.509-5.552,8.943-14.575,7.125-25.564c-8.678-1.421-16.555,5.448-24.727,5.448
	c-4.947,0-8.811-3.077-14.249-3.353c-2.17,0.92-5.711,4.41-8.382,2.096c-0.208-1.884,2.176-1.177,2.934-2.096
	c-3.466-2.899-6.88-0.04-9.22,1.676c0.175-8.359,6.324-6.373,12.992-5.867c6.747,0.512,14.485-0.051,19.278-0.419
	c9.467-0.728,15.45-7.393,23.469-8.801c1.92-0.337,3.903,1.331,5.448-1.257L185.688,108.125z M259.835,34.363
	c-0.047-0.512-0.125-0.993-0.838-0.838c-14.355,7.996-28.904,12.772-42.559,21.47C231.323,49.464,244.501,41.379,259.835,34.363z
	 M219.626,65.083c12.297-4.998,25.874-11.375,38.114-18.567c1.505-0.884,5.253-1.878,4.635-2.641
	C246.979,50.74,233.562,57.724,219.626,65.083z M253.968,38.554c-0.736,2.247,0.404,5.939,1.677,7.543
	c0.092-0.327,0.351-0.487,0.838-0.419C255.795,43.153,256.174,39.56,253.968,38.554z M252.711,46.936
	c-1.328-1.605-0.688-5.179-2.515-6.287c-1.932,1.563,0.844,4.788,0.838,7.125C251.814,47.716,252.435,47.498,252.711,46.936z
	 M241.814,44.84c-0.498,1.878,0.471,5.586,2.096,6.706C244.543,49.532,243.776,45.621,241.814,44.84z M238.881,46.516
	c-2.517,0.754-0.238,5.952,1.257,6.706C241.198,51.038,238.825,49.053,238.881,46.516z M230.499,50.288
	c-1.434,1.298,0.537,5.685,1.676,7.125c0.093-0.327,0.352-0.487,0.839-0.419C232.244,54.689,232.341,51.519,230.499,50.288z
	 M229.241,58.251c-1.326-1.607-1.126-4.741-2.515-6.287c-1.481,1.442,0.519,5.634,1.677,7.125
	C228.408,58.535,229.138,58.706,229.241,58.251z M219.184,56.155c-0.74,1.869,0.668,5.19,2.095,6.287
	C221.863,60.606,220.816,57.134,219.184,56.155z M259.416,36.458c-0.792-0.094-0.925,0.472-1.676,0.419
	c0.488,2.445,1.188,4.68,1.676,7.125c0.793,0.094,0.925-0.472,1.677-0.419C260.701,41.04,259.758,39.05,259.416,36.458z
	 M315.155,38.554c-1.343,1.737-6.609,1.765-5.029,5.029c1.842-0.953,3.006-2.583,5.029-3.353c2.209,0.724,2.943,2.923,5.448,3.353
	c0.621-0.39,2.056-2.09,0.838-2.934C318.965,41.997,317.278,38.954,315.155,38.554z M247.682,49.45
	c1.373-1.12-0.173-5.755-1.677-6.705C244.595,44.004,246.286,48.315,247.682,49.45z M310.126,46.516
	c1.771-0.464,2.758-0.73,4.707-1.016c2.198,0.595,2.947,1.464,5.771,1.436c0.179-0.799,1.197-0.759,0.838-2.096
	C316.843,44.953,312.87,40.793,310.126,46.516z M310.545,49.45c0.782,0.754,2.296-1.316,3.772-1.257
	c2.045,0.557,6.022,4.659,6.705,0.419C317.441,48.261,311.649,44.103,310.545,49.45z M236.366,55.317
	c1.061-2.184-1.313-4.168-1.258-6.705c-0.419,0-0.838,0-1.257,0C233.833,50.14,234.441,54.365,236.366,55.317z M310.545,53.222
	c1.796,0.258,1.709-1.365,3.354-1.257c2.062,0.872,3.056,2.811,5.867,2.934c0.241-0.876,1.039-1.196,0.838-2.515
	C317.301,52.969,312.283,47.521,310.545,53.222z M222.117,54.479c0.86,1.884,1.13,6.292,2.934,5.867
	c0.377-1.645-1.079-5.061-2.096-6.706C222.907,54.152,222.83,54.633,222.117,54.479z M310.965,56.574
	c2.59-0.999,5.03,1.531,7.962,2.515c0.466-0.412,2.058-1.801,0.839-2.515C316.836,57.935,312.769,51.597,310.965,56.574z
	 M348.264,69.147c-6.201-6.959-16.169-10.932-23.889-14.249C332.408,59.577,340.604,64.094,348.264,69.147z M224.213,75.015
	c-1.529,0.683-4.375,1.64-4.61,3.771c1.802,1.364,3.237-1.218,4.61-1.676c14.207-6.468,28.692-12.657,41.908-20.116
	c-0.088-0.47-0.465-0.653-0.838-0.838C252.251,62.592,237.502,69.077,224.213,75.015z M347.845,72.081
	c-7.595-4.206-15.907-10.893-23.47-12.992C332.525,62.813,339.917,69.53,347.845,72.081z M229.241,78.786
	c-2.776,1.438-6.568,1.708-8.382,4.61c13.088-4.1,25.718-12.277,39.395-17.183c0.421-1.183,0.614-1.05,0.839-1.676
	c1.578,0.199,5.193-0.863,5.867-2.934c-0.554-0.005-0.383-0.734-0.839-0.838C254.347,66.802,240.829,72.784,229.241,78.786z
	 M347.845,76.691c-7.358-5.354-17.095-8.441-23.889-14.249C327.7,69.423,339.811,72.012,347.845,76.691z M264.445,68.728
	c-0.833-0.005-0.533-1.144-1.677-0.838c-11.687,5.185-25.002,11.892-36.461,17.183c-1.2,0.554-4.555,0.487-3.771,2.934
	c11.326-4.161,23.663-10.391,35.204-15.506c3.335-1.479,7.546-2.729,9.639-5.867C265.833,65.705,263.415,67.9,264.445,68.728z
	 M347.426,81.301c-6.745-5.968-15.979-9.447-23.889-14.249C329.125,73.563,339.826,76.188,347.426,81.301z M267.379,70.824
	c-10.699,5.093-22.715,11.125-33.527,15.925c-3.489,1.549-8.001,2.226-10.059,5.867c10.676-4.49,23.387-9.73,33.947-15.087
	c3.666-1.86,8.157-2.943,10.477-6.286C268.125,70.916,267.866,70.755,267.379,70.824z M347.006,85.073
	c-6.943-5.448-15.854-9.292-23.888-13.83C330,77,338.839,80.667,347.006,85.073z M347.006,89.264
	c-6.818-5.951-16.544-8.881-24.307-13.83C329.781,81.063,338.6,84.958,347.006,89.264z M267.798,75.853
	c-9.238,5.011-19.212,9.286-29.336,13.411c-3.285,3.84-10.831,3.418-13.411,7.962c12.282-4.863,27.266-11.505,39.813-17.183
	c1.329-0.601,4.71-1.499,3.771-3.772C268.544,75.945,268.285,75.785,267.798,75.853z M340.72,90.521
	c1.912,1.152,3.891,3.323,5.867,2.514c-7.67-4.763-16.218-8.648-24.307-12.992C326.375,84.75,335.156,87.168,340.72,90.521z
	 M268.636,80.882c-12.223,5.592-25.677,12.264-37.718,17.602c-1.172,0.52-5.231,0.73-4.191,3.353
	c10.449-3.631,22.125-10.297,32.271-14.668c3.692-1.591,9.247-2.297,10.478-5.867C269.382,80.974,269.123,80.813,268.636,80.882z
	 M346.168,98.064c-7.465-5.107-15.736-9.409-24.308-13.411C328.667,90.833,337.667,96,346.168,98.064z M269.475,85.911
	c-11.063,5.598-25.171,11.273-36.042,16.764c-1.86,0.939-5.133,0.934-5.448,3.772c10.773-4.697,24.659-10.085,35.623-15.506
	c2.24-1.108,6.188-2.057,6.705-5.029C270.033,85.911,269.754,85.911,269.475,85.911z M321.86,90.521
	c7.807,4.813,17.14,9.813,24.308,12.153c-0.787-2.508-3.846-2.755-5.867-3.771c-6.408-3.222-12.909-6.616-18.859-10.059
	C321.348,89.637,321.914,89.769,321.86,90.521z M228.822,110.218c3.091,1.192,6.471-1.839,10.059-3.353
	c4.246-1.792,9.732-3.228,12.153-5.448c3.365-0.862,6.901-3.101,10.478-4.61c3.256-1.374,8.827-2.17,9.22-5.029
	C256.758,96.244,242.2,103.759,228.822,110.218z M345.749,106.865c-7.338-4.816-16.607-9.934-24.727-12.573
	C327.875,98.938,337.051,103.13,345.749,106.865z M326.89,100.998c-1.698-0.96-4.803-2.61-6.286-2.095
	c8.014,4.418,16.112,8.754,24.727,12.573C340.224,107.742,332.816,104.351,326.89,100.998z M231.337,119.857
	c11.759-2.951,24.538-10.042,35.623-14.668c1.794-0.749,5.629-0.749,5.448-3.772c-0.093-0.326-0.352-0.487-0.839-0.419
	C258.991,108.117,243.527,112.351,231.337,119.857z M320.604,103.932c-0.023-0.441-0.537-0.33-0.419,0.419
	c8.036,4.257,16.939,7.647,24.727,12.154C338.357,110.765,329.438,106.938,320.604,103.932z M271.569,106.865
	c-11.042,4.802-23.812,10.255-34.784,15.087c-1.15,0.507-4.422,0.677-3.771,2.934c8.177-2.859,18.725-6.979,26.821-11.315
	c4.096-2.073,11.145-3.354,12.992-6.286c-0.094-0.325-0.012-0.827-0.419-0.838C272.315,106.773,272.057,106.934,271.569,106.865z
	 M272.827,111.476c-10.184,5.363-25.105,10.244-35.204,15.506c-1.019,0.531-4.319,0.819-3.353,2.934
	c8.4-3.04,18.808-8.082,27.66-11.735c4.943-2.04,10.44-2.799,11.734-6.705C273.386,111.476,273.106,111.476,272.827,111.476z
	 M36.878,118.6c0.392,0.78,2.058-4.704,1.257-3.772C37.637,116.006,37.193,117.238,36.878,118.6z M273.665,116.923
	c-9.815,3.699-20.529,8.852-29.755,12.573c-2.983,1.204-6.767,1.869-8.802,4.61c3.048,0.249,6.306-1.56,9.64-2.934
	c7.109-2.929,13.947-6.083,20.535-8.801c3.19-1.316,8.157-2.382,9.221-5.448C274.224,116.923,273.944,116.923,273.665,116.923z
	 M236.366,138.297c2.13,2.416,4.078-0.445,5.867-1.257c9.877-4.483,24.013-8.587,33.108-14.249
	c-0.692-0.007-0.234-1.163-0.838-1.257C262.411,127.742,248.341,131.972,236.366,138.297z M239.719,142.488
	c5.177,0.559,10.363-3.114,15.507-5.448c3.347-1.519,6.978-2.802,10.477-4.191c3.453-1.37,7.822-2.054,10.059-5.029
	c-0.094-0.325-0.012-0.827-0.419-0.838C263.649,132.332,250.492,136.219,239.719,142.488z M238.881,147.937
	c3.112,1.11,6.18-1.309,9.22-2.515c8.25-3.274,16.843-6.988,24.308-10.058c1.387-0.571,4.435-0.582,4.19-2.934
	C264.365,136.262,250.879,142.473,238.881,147.937z M284.667,248.833c5.447,0.876,4.37,1.58,5.75-6.499
	C285.861,241.31,283.706,244.268,284.667,248.833z M55.738,265.282c-0.923-3.165-3.901-7.807-7.125-10.059
	C50.111,259.454,52.126,263.166,55.738,265.282z M279.113,255.643c-2.309,4.11-4.508,7.96-7.113,11.691
	c-2.285,3.275-5.561,6.363-6.717,10.521c0.604,0.234,1.022,0.654,1.258,1.258c5.006-0.92,6.933-6.2,9.22-9.64
	c2.53-3.805,6.166-7.348,7.124-12.153C282.169,256.22,281.355,255.217,279.113,255.643z M69.987,282.046
	c2.609,2.667,5.722,5.407,8.801,7.963c2.975,2.469,6.034,6.247,10.058,6.286c-4.721-6.454-12.844-9.508-17.602-15.926
	c-0.419,0-0.838,0-1.257,0C69.987,280.928,69.987,281.486,69.987,282.046z M231.875,308.125c3.522,1.789,22.125-5.208,23.875-8.625
	c0.938-1.83-7.417,2.271-8.167,1.084c-0.663-1.051,2.593-6.016,1.292-6.834l-9.563,7.625L231.875,308.125z M105.609,307.61
	c6.458,3.085,15.323,9.014,22.631,8.382c-1.364-3.194-6.65-3.496-10.478-5.029c-3.964-1.589-8.744-4.028-11.315-5.448
	C106.76,306.805,105.297,306.32,105.609,307.61z M213.735,313.478c-0.735-1.009-10.958,1.627-14.86,3.21
	c-2.828,1.147-7.766,2.394-8.189,5.172c3.553,2.279,9.335,0.903,13.627-0.234c4.393-1.165,12.344-4.656,11.519-5.633
	c-0.519-0.805-19.909,6.849-20.3,5.133C195.026,318.909,214.084,313.955,213.735,313.478z M165.54,321.859
	c-5.601-0.318-11.951-1.295-17.183-1.677c-0.577-0.018-0.92,0.197-1.257,0.419c0,0.42,0,0.839,0,1.258
	c2.947,1.932,9.587,2.621,15.087,2.934c3.532,0.201,8.985,1.507,10.058-1.677C170.894,320.937,167.796,321.987,165.54,321.859z"/>
<path fill-rule="evenodd" clip-rule="evenodd" d="M30.173,145.841c1.158,2.302,0.718-0.095,0.419-1.676
	c1.237,1.028,0.966-2.137,1.257-3.353c0.049,6.058-1.597,14.047-2.096,20.955c-0.221,2.024,0.479,7.17-0.419,7.125
	c0.231-8.179-1.035-13.547,0.419-20.117C28.791,153.126,32.079,146.755,30.173,145.841z"/>
</svg>
